<svg width="14" height="12" viewBox="0 0 14 12" fill="none" xmlns="http://www.w3.org/2000/svg">
<path d="M1.05809 1.42038C0.75103 0.757635 1.23501 -3.94201e-06 1.96543 -3.87815e-06L2.51069 -3.83048e-06C2.90559 -3.79596e-06 3.26351 0.232401 3.42418 0.593145L6.06537 6.52337C6.41716 7.31322 7.53778 7.31453 7.89141 6.5255L10.5511 0.591013C10.7123 0.231416 11.0696 -4.03591e-06 11.4637 -4.00146e-06L12.0346 -3.95155e-06C12.765 -3.8877e-06 13.249 0.757633 12.9419 1.42038L8.56455 10.8684C8.4008 11.2218 8.04673 11.448 7.6572 11.448L6.34281 11.448C5.95329 11.448 5.59921 11.2218 5.43546 10.8684L1.05809 1.42038Z" fill="#E52517"/>
</svg>
