<svg width="32" height="32" viewBox="0 0 32 32" fill="none" xmlns="http://www.w3.org/2000/svg">
<rect width="32" height="32" rx="16" fill="white"/>
<path d="M27.4901 12.3512C27.4418 12.1338 27.2367 12.001 27.0195 12.0493L19.4299 13.752H19.4178C19.3937 13.74 19.3575 13.74 19.3334 13.74L13.5658 13.6434L11.418 7.81047C11.4059 7.78632 11.4059 7.75009 11.3939 7.72594C11.2973 7.53271 11.0681 7.44818 10.8629 7.53271L7.72574 9.00603C7.53269 9.10264 7.44822 9.33209 7.53269 9.53739C7.60508 9.68231 7.73781 9.76684 7.89467 9.76684C7.955 9.76684 8.00327 9.75476 8.0636 9.73061L9.596 9.00603L10.9474 14.0419C10.9474 14.0781 10.9595 14.1143 10.9715 14.1506L11.2732 15.2978L8.00327 16.1311C7.97913 16.1432 7.955 16.1432 7.93087 16.1552C7.90674 16.1673 7.8826 16.1794 7.85847 16.1915C7.85847 16.1915 7.85847 16.1915 7.84641 16.2035C7.83434 16.2156 7.81021 16.2277 7.79814 16.2518C7.78608 16.2639 7.78607 16.276 7.77401 16.2881C7.76194 16.3002 7.76194 16.3122 7.74988 16.3243C7.74988 16.3243 7.73781 16.3364 7.73781 16.3485C7.73781 16.3605 7.72574 16.3726 7.72574 16.3847C7.72574 16.3968 7.71368 16.4088 7.71368 16.4209C7.71368 16.433 7.70161 16.4451 7.70161 16.4571C7.70161 16.4692 7.70161 16.4813 7.70161 16.4934C7.70161 16.5055 7.70161 16.5175 7.70161 16.5296C7.70161 16.5538 7.70161 16.5779 7.71368 16.6021V16.6141C7.71368 16.6383 7.72574 16.6504 7.73781 16.6745C7.73781 16.6866 7.73781 16.6987 7.74988 16.6987C7.76194 16.7107 7.76194 16.7349 7.77401 16.747C7.77401 16.747 7.77401 16.747 7.77401 16.7591L10.0666 19.7902L8.75137 23.9807C8.69104 24.186 8.79963 24.4155 9.00476 24.4758C9.04096 24.4879 9.08922 24.5 9.12542 24.5C9.29434 24.5 9.4512 24.3913 9.49947 24.2222L10.6458 20.5752L11.3456 21.493C11.418 21.5896 11.5386 21.65 11.6593 21.65C11.7438 21.65 11.8282 21.6258 11.9006 21.5654C12.0696 21.4326 12.1058 21.1911 11.973 21.0099L10.9353 19.6453L12.0334 16.1673L17.4149 16.916L19.9367 23.9928C19.997 24.1498 20.1418 24.2585 20.3107 24.2585C20.3711 24.2585 20.4314 24.2464 20.4917 24.2102C20.6727 24.1136 20.7331 23.8962 20.6727 23.703L19.4902 20.3638L18.3078 17.0247L19.3937 17.1817L22.0724 24.1256C22.1327 24.2826 22.2775 24.3792 22.4465 24.3792C22.4947 24.3792 22.543 24.3672 22.5912 24.3551C22.7964 24.2705 22.8929 24.0532 22.8205 23.8479L20.0936 16.7832L20.3469 14.3679L27.1885 12.8342C27.4056 12.7739 27.5384 12.5686 27.4901 12.3512ZM10.8026 8.42636L12.7211 13.6192L11.6472 13.595L10.332 8.64374L10.8026 8.42636ZM12.1058 15.3582L11.8524 14.4042L13.0107 14.4283L13.421 15.5514L12.1058 15.3582ZM8.7755 16.747L11.237 16.1311L10.3803 18.8603L8.7755 16.747ZM17.5717 14.9597C17.4873 14.7302 17.2339 14.6336 17.0167 14.7423C16.8357 14.8389 16.7754 15.0684 16.8357 15.2495L17.1253 16.0586L14.3069 15.6537C14.3069 15.6537 14.2173 15.4065 14.1811 15.2857L13.8674 14.4404L19.3213 14.5249C19.3213 14.5249 19.3213 14.5249 19.3334 14.5249C19.3696 14.5249 19.3937 14.5249 19.4299 14.5129C19.454 14.5249 19.4902 14.5249 19.5264 14.5249C19.5385 14.5249 19.5385 14.5249 19.5506 14.5249L19.3575 16.3605L18.0302 16.1794L17.5717 14.9597Z" fill="#E52517"/>
<path d="M17.5717 14.9597C17.4873 14.7302 17.2339 14.6336 17.0167 14.7423C16.8357 14.8389 16.7754 15.0684 16.8357 15.2495L17.1253 16.0586L14.3069 15.6537C14.3069 15.6537 14.2173 15.4065 14.1811 15.2857L13.8674 14.4404L19.3213 14.5249H19.3334C19.3696 14.5249 19.3937 14.5249 19.4299 14.5129C19.454 14.5249 19.4902 14.5249 19.5264 14.5249H19.5506L19.3575 16.3605L18.0302 16.1794L17.5717 14.9597Z" fill="white"/>
<path d="M12.1058 15.3582L11.8524 14.4042L13.0107 14.4283L13.421 15.5514L12.1058 15.3582Z" fill="white"/>
<path d="M10.8026 8.42636L12.7211 13.6192L11.6472 13.595L10.332 8.64374L10.8026 8.42636Z" fill="white"/>
</svg>
