<svg width="28" height="24" viewBox="0 0 28 24" fill="none" xmlns="http://www.w3.org/2000/svg">
<path d="M27.9861 6.84873C27.9186 6.54184 27.6314 6.35431 27.3273 6.4225L16.7019 8.82641H16.685C16.6512 8.80936 16.6005 8.80936 16.5667 8.80936L8.49207 8.67297L5.48518 0.43831C5.46829 0.404212 5.46829 0.353065 5.4514 0.318967C5.31626 0.0461836 4.9953 -0.0731592 4.70812 0.0461836L0.316042 2.12616C0.04576 2.26255 -0.0724883 2.58648 0.0457601 2.87631C0.147116 3.0809 0.332935 3.20024 0.552539 3.20024C0.637002 3.20024 0.704572 3.1832 0.789035 3.1491L2.9344 2.12616L4.82637 9.23558C4.82637 9.28673 4.84326 9.33788 4.86016 9.38902L5.28247 11.0087L0.704572 12.1851C0.670787 12.2021 0.637002 12.2021 0.603216 12.2192C0.569431 12.2362 0.535646 12.2533 0.501861 12.2703C0.501861 12.2703 0.501861 12.2703 0.484968 12.2874C0.468075 12.3044 0.43429 12.3214 0.417398 12.3555C0.400505 12.3726 0.400505 12.3896 0.383612 12.4067C0.36672 12.4237 0.36672 12.4408 0.349827 12.4578C0.349827 12.4578 0.332935 12.4749 0.332935 12.4919C0.332935 12.509 0.316042 12.526 0.316042 12.5431C0.316042 12.5601 0.299149 12.5772 0.299149 12.5942C0.299149 12.6113 0.282257 12.6283 0.282257 12.6454C0.282257 12.6624 0.282257 12.6795 0.282257 12.6965C0.282257 12.7136 0.282257 12.7306 0.282257 12.7477C0.282257 12.7818 0.282257 12.8159 0.299149 12.85V12.867C0.299149 12.9011 0.316042 12.9182 0.332935 12.9523C0.332935 12.9693 0.332934 12.9864 0.349827 12.9864C0.36672 13.0034 0.36672 13.0375 0.383612 13.0546C0.383612 13.0546 0.383612 13.0546 0.383612 13.0716L3.59321 17.3509L1.75191 23.2669C1.66745 23.5567 1.81948 23.8807 2.10666 23.9659C2.15734 23.9829 2.22491 24 2.27559 24C2.51208 24 2.73169 23.8466 2.79926 23.6079L4.40406 18.4591L5.38383 19.7548C5.48518 19.8912 5.65411 19.9764 5.82303 19.9764C5.94128 19.9764 6.05953 19.9423 6.16089 19.8571C6.39738 19.6696 6.44806 19.3286 6.26224 19.0728L4.80948 17.1463L6.34671 12.2362L13.8808 13.2932L17.4114 23.2839C17.4958 23.5056 17.6985 23.659 17.935 23.659C18.0195 23.659 18.104 23.642 18.1884 23.5908C18.4418 23.4544 18.5263 23.1476 18.4418 22.8748L16.7863 18.1607L15.1309 13.4467L16.6512 13.6683L20.4014 23.4715C20.4858 23.6931 20.6885 23.8295 20.925 23.8295C20.9926 23.8295 21.0602 23.8125 21.1277 23.7954C21.4149 23.6761 21.5501 23.3692 21.4487 23.0794L17.631 13.1057L17.9857 9.69591L27.5638 7.53069C27.8679 7.44544 28.0537 7.15561 27.9861 6.84873ZM4.62366 1.30781L7.30958 8.63887L5.80614 8.60477L3.96485 1.61469L4.62366 1.30781ZM6.44806 11.0939L6.09332 9.74705L7.71501 9.78115L8.28936 11.3667L6.44806 11.0939ZM1.7857 13.0546L5.23179 12.1851L4.03242 16.0381L1.7857 13.0546ZM14.1004 10.5313C13.9822 10.2074 13.6274 10.071 13.3234 10.2244C13.07 10.3608 12.9855 10.6847 13.07 10.9405L13.4754 12.0828L9.52963 11.5111C9.52963 11.5111 9.40427 11.1621 9.35359 10.9916L8.91438 9.7982L16.5498 9.91754C16.5498 9.91754 16.5498 9.91754 16.5667 9.91754C16.6174 9.91754 16.6512 9.91754 16.7019 9.90049C16.7357 9.91754 16.7863 9.91754 16.837 9.91754C16.8539 9.91754 16.8539 9.91754 16.8708 9.91754L16.6005 12.509L14.7423 12.2533L14.1004 10.5313Z" fill="#E52517"/>
<path d="M14.1004 10.5313C13.9822 10.2074 13.6274 10.071 13.3234 10.2244C13.07 10.3608 12.9855 10.6847 13.07 10.9405L13.4754 12.0828L9.52963 11.5111C9.52963 11.5111 9.40427 11.1621 9.35359 10.9916L8.91438 9.7982L16.5498 9.91754H16.5667C16.6174 9.91754 16.6512 9.91754 16.7019 9.90049C16.7357 9.91754 16.7863 9.91754 16.837 9.91754H16.8708L16.6005 12.509L14.7423 12.2533L14.1004 10.5313Z" fill="white"/>
<path d="M6.44806 11.0939L6.09332 9.74705L7.71501 9.78115L8.28936 11.3667L6.44806 11.0939Z" fill="white"/>
<path d="M4.62366 1.30781L7.30958 8.63887L5.80614 8.60477L3.96485 1.61469L4.62366 1.30781Z" fill="white"/>
</svg>
