<?xml version="1.0" encoding="UTF-8"?>
<svg id="_Слой_1" data-name="Слой_1" xmlns="http://www.w3.org/2000/svg" version="1.1" viewBox="0 0 200.4 107">
  <!-- Generator: Adobe Illustrator 29.7.1, SVG Export Plug-In . SVG Version: 2.1.1 Build 8)  -->
  <defs>
    <style>
      .st0 {
        fill: #e1251b;
      }
    </style>
  </defs>
  <path class="st0" d="M93.1,68.7c.8,1.4,1.8,2.6,2.9,3.7,3.3,3.2,7.4,4.9,12.3,4.9s5.1-.5,7.3-1.6c2.2-1,4.2-2.4,5.8-4.2,1.7-1.8,3-3.9,3.9-6.4.9-2.5,1.4-5.1,1.4-8s-.5-5.4-1.4-7.8c-.9-2.4-2.2-4.5-3.8-6.3-1.6-1.7-3.6-3.1-5.8-4.1-2.2-1-4.7-1.5-7.3-1.5s-5.9.7-8.4,2.1c-2.5,1.4-5,3.6-7.4,6.5l-8.9-3L91.4,0h38.5v10h-30.1l-3.7,21.1c2.5-1.3,4.7-2.2,6.8-2.8,2-.5,4.3-.8,6.7-.8,3.9,0,7.6.8,11.1,2.3,3.4,1.5,6.4,3.6,8.9,6.3,2.5,2.7,4.4,5.8,5.8,9.4,1.4,3.6,2.1,7.5,2.1,11.7s-.7,8.2-2.2,11.8c-1.5,3.6-3.5,6.8-6.1,9.5-2.6,2.7-5.6,4.8-9.1,6.4-3.5,1.5-7.3,2.3-11.4,2.3s-7.6-.7-11-2c-3.4-1.3-6.4-3.2-9-5.6-1.7-1.6-3.1-3.3-4.4-5.3s7.2-8.1,8.8-5.5Z"/>
  <g>
    <path class="st0" d="M8.7,14.1h-2.2v-6.6l-4.4,6.6H0V4.1h2.2v6.6l4.4-6.6h2.1v10Z"/>
    <path class="st0" d="M11.1,4.1h2.2v4h4.1v-4h2.2v10h-2.2v-4h-4.1v4h-2.2V4.1Z"/>
    <path class="st0" d="M21.5,9.1c0-2.9,2.2-5.2,5.2-5.2s3,.7,3.9,1.6l-1.3,1.5c-.8-.7-1.4-1.1-2.6-1.1-1.7,0-2.9,1.4-2.9,3.2s1.2,3.2,2.9,3.2,1.9-.5,2.6-1.2l1.4,1.5c-1,1.1-2.2,1.7-4.1,1.7-3,0-5.2-2.3-5.2-5.2Z"/>
    <path class="st0" d="M34.9,6.1h-3.1v-2h8.3v2h-3.1v8h-2.2V6.1Z"/>
    <path class="st0" d="M50.5,14.1h-2.2v-6.6l-4.4,6.6h-2.1V4.1h2.2v6.6l4.4-6.6h2.1v10Z"/>
    <path class="st0" d="M55.3,6.1h-3.1v-2h8.3v2h-3.1v8h-2.2V6.1Z"/>
    <path class="st0" d="M68.9,4.1h2.4l-3.9,7.8c-.9,1.8-1.9,2.4-3.3,2.4s-1.5-.2-2.2-.6l.9-1.6c.4.2.8.3,1.2.3s.9-.2,1.3-.8l-4-7.5h2.5l2.7,5.3,2.4-5.3Z"/>
    <path class="st0" d="M75.1,6.1h-3.1v-2h8.3v2h-3.1v8h-2.2V6.1Z"/>
  </g>
  <path class="st0" d="M128.8,56c0-.4-.4-.6-.8-.5l-13.2,2.9s0,0,0,0c0,0,0,0-.2,0l-10-.2-3.7-10.1s0,0,0-.1c-.2-.3-.6-.5-.9-.3l-5.4,2.6c-.3.2-.5.6-.3.9.1.2.4.4.6.4s.2,0,.3,0l2.7-1.3,2.3,8.7c0,0,0,.1,0,.2l.5,2-5.7,1.4s0,0,0,0c0,0,0,0-.1,0,0,0,0,0-.1,0,0,0,0,0,0,0,0,0,0,0,0,0,0,0,0,0,0,0,0,0,0,0,0,0,0,0,0,0,0,0,0,0,0,0,0,0,0,0,0,0,0,0,0,0,0,0,0,0,0,0,0,0,0,0,0,0,0,0,0,0,0,0,0,0,0,0,0,0,0,0,0,.1,0,0,0,0,0,0h0s0,0,0,0c0,0,0,0,0,0,0,0,0,0,0,0,0,0,0,0,0,0,0,0,0,0,0,0l4,5.3-2.3,7.3c-.1.4,0,.7.4.9,0,0,.1,0,.2,0,.3,0,.6-.2.7-.5l2-6.3,1.2,1.6c.1.2.3.3.5.3s.3,0,.4-.1c.3-.2.4-.7.1-1l-1.8-2.4,1.9-6,9.3,1.3,4.4,12.3c.1.3.4.5.6.5s.2,0,.3,0c.3-.2.4-.6.3-.9l-4.1-11.5,1.9.3,4.7,12c.1.3.4.4.6.4s.2,0,.2,0c.4-.1.5-.5.4-.9l-4.7-12.3.4-4.2,11.9-2.7c.4,0,.6-.4.5-.8ZM99.8,49.2l3.3,9h-1.9s-2.3-8.6-2.3-8.6l.8-.4ZM102.1,61.2l-.4-1.7h2s.7,2,.7,2l-2.3-.3ZM96.3,63.6l4.3-1.1-1.5,4.7-2.8-3.7ZM111.6,60.5c-.1-.4-.6-.6-1-.4-.3.2-.4.6-.3.9l.5,1.4-5.2-.7c0-.2.1-.4,0-.6l-.5-1.5,9.5.2s0,0,0,0c0,0,.1,0,.2,0,0,0,.1,0,.2,0s0,0,0,0l-.3,3.2-2.3-.3-.8-2.1Z"/>
  <g>
    <path class="st0" d="M96.1,92h4.7c1.1,0,2.1.3,2.6.9.5.5.7,1,.7,1.7,0,1.1-.6,1.8-1.3,2.2,1.2.4,1.9,1.1,1.9,2.5s-1.5,2.8-3.8,2.8h-4.8v-10ZM100.2,96c1,0,1.6-.3,1.6-1.1s-.5-1-1.4-1h-2.2v2.1h2ZM100.8,100.1c1,0,1.6-.3,1.6-1.1s-.5-1.1-1.6-1.1h-2.6v2.2h2.6Z"/>
    <path class="st0" d="M106,97c0-2.9,2.3-5.2,5.4-5.2s5.3,2.3,5.3,5.2-2.3,5.2-5.4,5.2-5.3-2.3-5.3-5.2ZM114.3,97c0-1.7-1.3-3.2-3-3.2s-3,1.4-3,3.2,1.3,3.2,3,3.2,3-1.4,3-3.2Z"/>
    <path class="st0" d="M118.2,97c0-2.9,2.2-5.2,5.2-5.2s3,.7,3.9,1.6l-1.3,1.5c-.8-.7-1.4-1.1-2.6-1.1-1.7,0-2.9,1.4-2.9,3.2s1.2,3.2,2.9,3.2,1.9-.5,2.6-1.2l1.4,1.5c-1,1.1-2.2,1.7-4.1,1.7-3,0-5.2-2.3-5.2-5.2Z"/>
    <path class="st0" d="M129.2,92h8.4v10h-2.2v-8.1h-4v8.1h-2.2v-10Z"/>
    <path class="st0" d="M148.7,102h-2.2v-6.6l-4.4,6.6h-2.1v-10h2.2v6.6l4.4-6.6h2.1v10Z"/>
    <path class="st0" d="M153.4,94h-3.1v-2h8.3v2h-3.1v8h-2.2v-8Z"/>
    <path class="st0" d="M162.5,91.9h2l4.3,10.1h-2.3l-.9-2.3h-4.2l-.9,2.3h-2.3l4.3-10.1ZM164.9,97.8l-1.3-3.3-1.3,3.3h2.7Z"/>
    <path class="st0" d="M170.4,92h2.2v4h4.1v-4h2.2v10h-2.2v-4h-4.1v4h-2.2v-10Z"/>
    <path class="st0" d="M190,102h-2.2v-6.6l-4.4,6.6h-2.1v-10h2.2v6.6l4.4-6.6h2.1v10Z"/>
    <path class="st0" d="M200.4,102h-2.2v-3.2h-1.7l-2.2,3.2h-2.6l2.5-3.6c-1.3-.5-2.2-1.5-2.2-3.1s1.4-3.3,3.8-3.3h4.6v10ZM198.1,96.8v-2.9h-2.2c-1.1,0-1.7.5-1.7,1.5s.6,1.4,1.7,1.4h2.2Z"/>
  </g>
  <g>
    <path class="st0" d="M80.4,96.8c0-.3-.3-.5-.8-.5h-1.1v1.1h1.1c.5,0,.8-.2.8-.6Z"/>
    <path class="st0" d="M86.8,54.9c-2.3-2.5-5.1-4.6-8.2-6-3.2-1.5-6.6-2.2-10.3-2.2s-3.2.1-4.5.4c-1.3.3-2.8.8-4.5,1.6l20.3-30h-12.7l-21.5,32.2c-1.9,2.8-3.5,5.3-4.7,7.5-1.2,2.2-2.2,4.2-3,6.1-.7,1.9-1.2,3.8-1.5,5.6-.3,1.9-.4,3.9-.4,6,0,4.2.8,8.2,2.3,11.8,1.5,3.6,3.6,6.8,6.2,9.4,2.6,2.6,5.7,4.7,9.4,6.2,3.6,1.5,7.6,2.3,11.8,2.3s8-.8,11.6-2.3c2.3-1,4.4-2.2,6.3-3.7-.5-.5-.7-1.1-.7-1.9,0-1.5,1.2-2.7,2.8-2.7s1.4.3,1.9.7c2.1-2.4,3.7-5.2,4.9-8.4,1.4-3.7,2.1-7.8,2.1-12.2s-.7-7.9-2-11.3c-1.4-3.5-3.2-6.5-5.5-9ZM79.9,100.5h-2.5v-5.2h2.4c.6,0,1.1.2,1.4.5.2.2.4.5.4.9,0,.6-.3.9-.7,1.1.6.2,1,.6,1,1.3s-.8,1.4-2,1.4ZM82.2,84c-.9,2.4-2.1,4.5-3.8,6.3-1.6,1.8-3.5,3.1-5.7,4.1-2.2,1-4.6,1.4-7.4,1.4s-5.2-.5-7.5-1.5c-2.3-1-4.3-2.4-6-4.2-1.7-1.8-3-3.9-3.9-6.3-1-2.4-1.4-5.1-1.4-7.9s.5-5.4,1.4-7.8c.9-2.4,2.2-4.5,3.8-6.3s3.5-3.1,5.8-4.1c2.2-1,4.7-1.5,7.3-1.5s5.3.5,7.6,1.4c2.3,1,4.3,2.3,5.9,4.1,1.6,1.7,2.9,3.8,3.8,6.3.9,2.4,1.4,5.1,1.4,8s-.4,5.5-1.3,7.9Z"/>
    <path class="st0" d="M79.8,98.3h-1.3v1.2h1.4c.5,0,.8-.2.8-.6s-.3-.6-.9-.6Z"/>
    <path class="st0" d="M86.5,96.7c-.3-.3-.7-.5-1.2-.5-.9,0-1.6.7-1.6,1.6s.2.8.4,1.1c.7-.6,1.3-1.2,2-1.9.1-.1.2-.3.3-.4Z"/>
    <path class="st0" d="M80.9,97.7c.4-.2.7-.5.7-1.1s-.1-.7-.4-.9c-.3-.3-.8-.5-1.4-.5h-2.4v5.2h2.5c1.2,0,2-.5,2-1.4s-.4-1.1-1-1.3ZM78.5,96.3h1.1c.5,0,.8.2.8.5s-.3.6-.8.6h-1.1v-1.1ZM79.9,99.5h-1.4v-1.2h1.3c.6,0,.9.2.9.6s-.3.6-.8.6Z"/>
    <path class="st0" d="M82.6,97.9c0,.7.3,1.4.7,1.9.3-.2.6-.5.9-.7-.3-.3-.4-.7-.4-1.1,0-.9.6-1.6,1.6-1.6s.9.2,1.2.5c.3-.3.5-.6.8-.9-.5-.5-1.1-.7-1.9-.7-1.6,0-2.8,1.2-2.8,2.7Z"/>
  </g>
</svg>