<svg width="46" height="39" viewBox="0 0 46 39" fill="none" xmlns="http://www.w3.org/2000/svg">
<path d="M45.9772 11.1292C45.8662 10.6305 45.3945 10.3257 44.8949 10.4366L27.4388 14.3429H27.411C27.3555 14.3152 27.2723 14.3152 27.2168 14.3152L13.9513 14.0936L9.01137 0.712254C8.98362 0.656845 8.98362 0.573731 8.95587 0.518322C8.73385 0.0750484 8.20656 -0.118884 7.73477 0.0750484L0.519212 3.45501C0.0751772 3.67665 -0.119088 4.20303 0.0751772 4.67401C0.24169 5.00647 0.546964 5.2004 0.907742 5.2004C1.0465 5.2004 1.15751 5.17269 1.29627 5.11728L4.8208 3.45501L7.92904 15.0078C7.92904 15.0909 7.95679 15.1741 7.98454 15.2572L8.67835 17.8891L1.15751 19.8007C1.10201 19.8284 1.0465 19.8284 0.990998 19.8561C0.935494 19.8838 0.87999 19.9115 0.824485 19.9392C0.824485 19.9392 0.824485 19.9392 0.796733 19.9669C0.768981 19.9947 0.713477 20.0224 0.685725 20.0778C0.657973 20.1055 0.657972 20.1332 0.63022 20.1609C0.602468 20.1886 0.602468 20.2163 0.574716 20.244C0.574716 20.244 0.546964 20.2717 0.546964 20.2994C0.546964 20.3271 0.519212 20.3548 0.519212 20.3825C0.519212 20.4102 0.49146 20.4379 0.49146 20.4656C0.49146 20.4933 0.463707 20.521 0.463707 20.5487C0.463707 20.5764 0.463707 20.6042 0.463707 20.6319C0.463707 20.6596 0.463707 20.6873 0.463707 20.715C0.463707 20.7704 0.463707 20.8258 0.49146 20.8812V20.9089C0.49146 20.9643 0.519212 20.992 0.546964 21.0474C0.546964 21.0751 0.546964 21.1028 0.574716 21.1028C0.602468 21.1305 0.602468 21.1859 0.63022 21.2137C0.63022 21.2137 0.63022 21.2137 0.63022 21.2414L5.90313 28.1952L2.87814 37.8087C2.73938 38.2797 2.98915 38.8061 3.46094 38.9446C3.5442 38.9723 3.65521 39 3.73846 39C4.12699 39 4.48777 38.7507 4.59878 38.3628L7.23523 29.996L8.84486 32.1016C9.01137 32.3232 9.28889 32.4617 9.56641 32.4617C9.76068 32.4617 9.95494 32.4063 10.1215 32.2678C10.51 31.963 10.5932 31.4089 10.288 30.9934L7.90129 27.8628L10.4267 19.8838L22.8042 21.6015L28.6044 37.8364C28.7432 38.1966 29.0762 38.4459 29.4647 38.4459C29.6035 38.4459 29.7422 38.4182 29.881 38.3351C30.2973 38.1135 30.436 37.6148 30.2973 37.1715L27.5776 29.5112L24.8579 21.8509L27.3555 22.211L33.5165 38.1412C33.6553 38.5013 33.9883 38.723 34.3768 38.723C34.4879 38.723 34.5989 38.6952 34.7099 38.6675C35.1817 38.4736 35.4037 37.9749 35.2372 37.5039L28.9652 21.2968L29.548 15.7558L45.2834 12.2374C45.783 12.0988 46.0882 11.6279 45.9772 11.1292ZM7.59601 2.12519L12.0086 14.0382L9.53866 13.9828L6.51368 2.62387L7.59601 2.12519ZM10.5932 18.0276L10.0104 15.839L12.6747 15.8944L13.6182 18.4709L10.5932 18.0276ZM2.93365 21.2137L8.59509 19.8007L6.62469 26.062L2.93365 21.2137ZM23.165 17.1134C22.9707 16.587 22.3879 16.3653 21.8884 16.6147C21.4721 16.8363 21.3333 17.3627 21.4721 17.7783L22.1381 19.6345L15.6558 18.7056C15.6558 18.7056 15.4499 18.1384 15.3666 17.8614L14.6451 15.9221L27.189 16.116C27.189 16.116 27.189 16.116 27.2168 16.116C27.3 16.116 27.3555 16.116 27.4388 16.0883C27.4943 16.116 27.5776 16.116 27.6608 16.116C27.6886 16.116 27.6886 16.116 27.7163 16.116L27.2723 20.3271L24.2196 19.9115L23.165 17.1134Z" fill="#E52517"/>
<path d="M23.165 17.1134C22.9707 16.587 22.3879 16.3653 21.8884 16.6147C21.4721 16.8363 21.3333 17.3627 21.4721 17.7783L22.1381 19.6345L15.6558 18.7056C15.6558 18.7056 15.4499 18.1384 15.3666 17.8614L14.6451 15.9221L27.189 16.116H27.2168C27.3 16.116 27.3555 16.116 27.4388 16.0883C27.4943 16.116 27.5776 16.116 27.6608 16.116H27.7163L27.2723 20.3271L24.2196 19.9115L23.165 17.1134Z" fill="white"/>
<path d="M10.5932 18.0276L10.0104 15.839L12.6747 15.8944L13.6182 18.4709L10.5932 18.0276Z" fill="white"/>
<path d="M7.59601 2.12519L12.0086 14.0382L9.53866 13.9828L6.51368 2.62387L7.59601 2.12519Z" fill="white"/>
</svg>
